Coordinates
version=1
nRows=38
nColumns=12
inDegrees=yes

Units are S.I. units (second, meters, Newtons, ...)
Angles are in degrees

endheader
time	SC_y	SC_z	SC_x	AC_y	AC_z	AC_x	GH_y	GH_z	GH_yy	EL_x	PS_y
       0.0              -48.54          31.23          60.71           69.0           6.67            2.7          7.788          7.047          62.15          50.81           78.5
   0.02295              -48.54          31.23          60.71           69.0          6.667          2.701          7.792          7.044          62.12          50.82          78.51
   0.04589              -48.54          31.22          60.71           69.0          6.664          2.702          7.796          7.041          62.08          50.82          78.52
   0.06884              -48.54          31.22          60.71           69.0          6.661          2.703            7.8          7.038          62.05          50.82          78.53
   0.09179              -48.54          31.22          60.72           69.0          6.658          2.705          7.805          7.035          62.01          50.83          78.54
    0.1147              -48.54          31.21          60.72           69.0          6.655          2.706           7.81          7.032          61.97          50.83          78.56
    0.1377              -48.54          31.21          60.72           69.0          6.651          2.707          7.815          7.028          61.93          50.84          78.57
    0.1606              -48.54          31.21          60.72           69.0          6.647          2.709           7.82          7.024          61.88          50.84          78.58
    0.1836              -48.54           31.2          60.73           69.0          6.643           2.71          7.826           7.02          61.84          50.85           78.6
    0.2065              -48.54           31.2          60.73          68.99          6.639          2.712          7.833          7.015          61.78          50.85          78.61
    0.2295              -48.54           31.2          60.73          68.99          6.634          2.714           7.84           7.01          61.73          50.86          78.63
    0.2524              -48.54          31.19          60.74          68.99          6.628          2.716          7.847          7.005          61.67          50.86          78.65
    0.2754              -48.54          31.19          60.74          68.99          6.623          2.718          7.855          6.999           61.6          50.87          78.67
    0.2983              -48.54          31.18          60.75          68.99          6.617          2.721          7.864          6.993          61.53          50.88          78.69
    0.3213              -48.54          31.18          60.75          68.99           6.61          2.723          7.873          6.987          61.46          50.89          78.72
    0.3442              -48.54          31.17          60.76          68.98          6.603          2.726          7.884          6.979          61.38           50.9          78.74
    0.3672              -48.54          31.16          60.76          68.98          6.596          2.729          7.895          6.971          61.29          50.91          78.77
    0.3901              -48.54          31.16          60.77          68.98          6.587          2.733          7.907          6.963          61.19          50.92           78.8
     0.413              -48.54          31.15          60.77          68.98          6.578          2.736           7.92          6.954          61.08          50.93          78.83
     0.436              -48.54          31.14          60.78          68.98          6.568           2.74          7.934          6.943          60.97          50.94          78.87
    0.4589              -48.54          31.13          60.79          68.97          6.557          2.744           7.95          6.932          60.84          50.95          78.91
    0.4819              -48.54          31.12           60.8          68.97          6.545          2.749          7.968           6.92           60.7          50.97          78.95
    0.5048              -48.54          31.11          60.81          68.97          6.531          2.755          7.987          6.906          60.55          50.99           79.0
    0.5278              -48.54           31.1          60.82          68.96          6.517           2.76          8.008          6.891          60.37           51.0          79.06
    0.5507              -48.54          31.08          60.83          68.96            6.5          2.767          8.032          6.874          60.18          51.02          79.11
    0.5737              -48.54          31.07          60.84          68.95          6.482          2.774          8.059          6.856          59.97          51.05          79.18
    0.5966              -48.54          31.05          60.86          68.95          6.461          2.782          8.088          6.835          59.73          51.07          79.26
    0.6196              -48.54          31.03          60.87          68.94          6.438          2.792          8.122          6.811          59.46           51.1          79.34
    0.6425              -48.54          31.01          60.89          68.93          6.412          2.802           8.16          6.785          59.16          51.14          79.44
    0.6655              -48.54          30.98          60.91          68.92          6.382          2.814          8.202          6.754          58.82          51.17          79.54
    0.6884              -48.53          30.95          60.94          68.92          6.348          2.827          8.251           6.72          58.43          51.22          79.67
    0.7114              -48.53          30.92          60.96          68.91          6.309          2.842          8.307           6.68          57.97          51.26          79.81
    0.7343              -48.53          30.88           61.0          68.89          6.264           2.86          8.372          6.634          57.45          51.32          79.97
    0.7572              -48.53          30.83          61.03          68.88          6.212          2.881          8.448          6.581          56.85          51.39          80.16
    0.7802              -48.53          30.78          61.08          68.86           6.15          2.905          8.536          6.519          56.14          51.46          80.38
    0.8031              -48.53          30.72          61.13          68.84          6.078          2.934          8.639          6.446          55.31          51.55          80.64
    0.8261              -48.53          30.64          61.19          68.82          5.993          2.967          8.763          6.359          54.32          51.66          80.95
     0.849              -48.52          30.55          61.26          68.79           5.89          3.008          8.911          6.254          53.13          51.79          81.32
